<svg xmlns="http://www.w3.org/2000/svg">
    <symbol id="htmlacademy" viewBox="0 0 26.943 34.09">
        <path d="M13.62,0.017L13.472,0L0,1.412v24.661l13.472,8.017l13.43-7.99l0.042-0.026V1.412L13.62,0.017z M25.019,12.127L13.495,5.334 l-0.001-0.104L13.407,5.28l-0.088-0.056v0.109L1.925,12.118V3.147l11.547-1.212l11.547,1.212V12.127z M13.405,6.787L24.923,13.5 l-4.479,2.64l-7.093-4.221l-0.013,1.415l5.904,3.513l-0.86,0.507l-5.031-2.992l-0.013,1.415l3.827,2.275l-0.782,0.523l-3.032-1.787 l-0.013,1.413l1.852,1.091l-1.8,1.081L2.034,13.622L13.405,6.787z M1.925,15.127l11.411,6.791l0.015,1.044l-7.941-4.728L5.395,19.65 l7.979,4.796l0.017,1.076l-7.972-4.741l-0.013,1.415l8.021,4.821l0.045,0.026l8.143-4.872v-1.268l-0.011-0.148v-3.761l3.415-2.036 v10.02L13.472,31.85L1.925,24.979V15.127z"/>
    </symbol>

    <symbol id="icon-android-logo" viewBox="0 0 42.084 47.041">
        <path fill="#A4C639" d="M34.144 14.009H7.945c-.009.11-.018.22-.018.333v18.754c0 1.926 1.457 3.491 3.316 3.628v7.433a2.884 2.884 0 1 0 5.77 0v-7.419h8.058v7.419a2.885 2.885 0 1 0 5.771 0v-7.433c1.858-.137 3.315-1.702 3.315-3.628V14.342c0-.113-.004-.223-.013-.333zM2.886 15.679a2.886 2.886 0 0 1 2.886 2.885v12.378a2.885 2.885 0 1 1-5.772 0V18.564a2.885 2.885 0 0 1 2.886-2.885zM39.198 15.679a2.885 2.885 0 0 1 2.886 2.885v12.378a2.885 2.885 0 0 1-2.886 2.886 2.884 2.884 0 0 1-2.885-2.886V18.564a2.884 2.884 0 0 1 2.885-2.885zM8.03 11.967h26.025c-.039-2.783-1.234-5.322-3.186-7.275L33.315.457a.304.304 0 1 0-.527-.304L30.416 4.26c-2.052-1.853-4.821-3.101-7.924-3.4h-2.9c-3.102.299-5.872 1.547-7.924 3.4L9.296.152a.304.304 0 0 0-.526.304l2.445 4.235c-1.95 1.954-3.147 4.493-3.185 7.276zm17.293-5.163c-.002-.805.664-1.46 1.489-1.462.825-.002 1.494.648 1.497 1.454v.008c.002.805-.664 1.46-1.489 1.462-.824.002-1.494-.649-1.497-1.454v-.008zm-11.143 0c-.001-.805.665-1.46 1.489-1.462.824-.002 1.494.648 1.497 1.454v.008c.002.805-.664 1.46-1.488 1.462-.825.002-1.495-.649-1.498-1.454v-.008z"/>
    </symbol>

    <symbol id="icon-apple-logo" viewBox="0 0 46.21 56.753">
        <path fill="#FFF" d="M38.593 30.15c.081 8.59 7.535 11.447 7.617 11.483-.062.202-1.19 4.073-3.927 8.072-2.365 3.457-4.82 6.901-8.688 6.973-3.799.07-5.021-2.253-9.365-2.253s-5.702 2.182-9.298 2.323c-3.733.142-6.576-3.739-8.961-7.184-4.875-7.046-8.598-19.91-3.597-28.593 2.484-4.313 6.925-7.043 11.743-7.114 3.666-.069 7.126 2.466 9.366 2.466 2.241 0 6.444-3.049 10.865-2.601 1.85.077 7.044.747 10.38 5.629-.269.168-6.197 3.62-6.135 10.799m-7.14-21.088c1.982-2.4 3.316-5.739 2.952-9.062-2.857.115-6.312 1.904-8.36 4.302-1.837 2.123-3.445 5.521-3.011 8.778 3.184.246 6.436-1.619 8.419-4.018"/>
    </symbol>

    <symbol id="icon-contrast" viewBox="0 0 16 16">
        <path d="M8 3v10c2.762 0 5-2.238 5-5s-2.238-5-5-5z"/>
        <path d="M8 0a8 8 0 1 0 0 16A8 8 0 0 0 8 0zm0 14A6 6 0 0 1 8 2a6 6 0 0 1 0 12z"/>
    </symbol>

    <symbol id="icon-crop" viewBox="0 0 561 561">
        <path d="M408 357h51V153c0-28.05-22.95-51-51-51H204v51h204v204zm-255 51V0h-51v102H0v51h102v255c0 28.05 22.95 51 51 51h255v102h51V459h102v-51H153z"/>
    </symbol>

    <symbol id="icon-facebook" viewBox="0 0 8.673 18.944">
        <path fill="#d22856" d="M6.275 3.357h2.398V0H5.795C2.656.181 1.54 2.387 1.948 6.115H0v3.517h1.958v9.312h3.837V9.632h2.857V6.115H5.786c-.021-1.045-.036-2.406.489-2.758z"/>
    </symbol>

    <symbol id="icon-fill" viewBox="0 0 48 48">
        <path fill="none" d="M0,0h48v48H0V0z"/>
        <path d="M33.12,17.88L15.24,0l-2.83,2.83l4.76,4.76L6.88,17.88c-1.17,1.17-1.17,3.07,0,4.24l11,11C18.46,33.71,19.23,34,20,34 s1.54-0.29,2.12-0.88l11-11C34.29,20.95,34.29,19.05,33.12,17.88z M10.41,20L20,10.42L29.59,20H10.41z M38,23c0,0-4,4.33-4,7 c0,2.21,1.79,4,4,4s4-1.79,4-4C42,27.33,38,23,38,23z"/>
        <rect y="40" width="48" height="3"/>
    </symbol>

    <symbol id="icon-heart" viewBox="521.939 473.064 12.545 11.99">
        <path d="M528.174 485.055a.737.737 0 0 1-.552-.25c-3.798-4.323-4.644-5.297-4.858-5.57l-.004.002a3.866 3.866 0 0 1-.82-2.373c0-2.095 1.703-3.8 3.798-3.8a3.8 3.8 0 0 1 2.484.9 3.847 3.847 0 0 1 2.463-.9c2.095 0 3.8 1.705 3.8 3.8 0 .91-.32 1.754-.897 2.38l-4.86 5.562a.742.742 0 0 1-.554.25zm-4.245-6.706c.207.254 2.47 2.838 4.242 4.857l4.323-4.944c.34-.37.52-.86.52-1.4a2.333 2.333 0 0 0-2.33-2.33c-.73 0-1.42.344-1.9.943a.76.76 0 0 1-.585.275.727.727 0 0 1-.575-.293 2.333 2.333 0 0 0-1.887-.925 2.333 2.333 0 0 0-2.33 2.33c0 .68.275 1.172.507 1.468.004.006.01.012.014.02z"/>
    </symbol>

    <symbol id="icon-mail" viewBox="0 0 17.988 13.966">
        <path fill="#d22856" d="M14.914 1.814C16.111.816 15.816 0 14.257 0H3.731c-1.56 0-1.854.816-.657 1.814l3.742 3.118c1.197.998 3.158.998 4.355 0l3.743-3.118z"/>
        <path fill="#d22856" d="M11.913 7.044A209.809 209.809 0 0 1 9.695 8.88l-.02.013a1.048 1.048 0 0 1-.235.136c-.033.015-.066.034-.1.048a1.18 1.18 0 0 1-.335.059l-.01.001h-.002l-.01-.001a1.216 1.216 0 0 1-.335-.059c-.034-.014-.068-.033-.1-.048a1.07 1.07 0 0 1-.235-.136l-.02-.013c-.022-.012-1.02-.838-2.218-1.836L2.178 3.796C.979 2.798 0 3.257 0 4.816v6.315a2.842 2.842 0 0 0 2.835 2.835h12.318a2.842 2.842 0 0 0 2.835-2.835V4.816c0-1.559-.979-2.018-2.178-1.02l-3.897 3.248z"/>
    </symbol>

    <symbol id="icon-microsoft-logo" viewBox="0 0 43.922 41.992">
        <path fill="#F05423" d="M20.874 19.953H0V0h20.874v19.953z"/><path fill="#84C441" d="M43.922 19.953H23.049V0h20.873v19.953z"/>
        <path fill="#2DABE2" d="M20.873 41.992H0V22.04h20.873v19.952z"/>
        <path fill="#F9BC15" d="M43.922 41.992H23.049V22.04h20.873v19.952z"/>
    </symbol>

    <symbol id="icon-no" viewBox="0 0 26.752 26.752">
        <path fill="#f25b26" d="M15.497 13.376L26.312 2.562A1.5 1.5 0 1 0 24.191.441L13.376 11.255 2.562.439A1.5 1.5 0 1 0 .441 2.56l10.814 10.815L.439 24.19a1.5 1.5 0 1 0 2.122 2.121l10.815-10.814L24.19 26.312c.293.293.677.439 1.061.439s.768-.146 1.061-.439a1.5 1.5 0 0 0 0-2.121L15.497 13.376z"/>
    </symbol>

    <symbol id="icon-phone" viewBox="0 0 19.697 19.696">
        <path fill="#d22856" d="M9.848 0C6.34 0 2.823.628 1.546 1.878.488 2.918.134 4.752.016 5.913c0 0-.016.115-.016.165 0 .454.369.82.819.82.054 0 2.028-.161 3.218-.259a.503.503 0 0 0 .086-.017.821.821 0 0 0 .801-.819l.003-1.617c0-.5.407-.902.907-.902h8.027c.499 0 .907.402.907.902l.003 1.617a.82.82 0 0 0 .802.82.474.474 0 0 0 .085.017c1.19.098 3.164.259 3.217.259a.822.822 0 0 0 .822-.82c0-.05-.018-.165-.018-.165-.118-1.161-.472-2.995-1.53-4.035C16.873.628 13.356 0 9.848 0zm0 10.67a1.64 1.64 0 1 0 0 3.281 1.64 1.64 0 1 0 0-3.281zM8.616 6.975V5.951a1.024 1.024 0 1 0-2.049 0v1.024L1.03 12.888a2.054 2.054 0 0 0-.619 1.47v1.646c0 .907.734 1.643 1.641 1.643h.411v1.023a1.026 1.026 0 1 0 2.05 0v-1.023h10.669v1.023a1.025 1.025 0 1 0 2.051 0v-1.023h.411c.905 0 1.64-.735 1.64-1.643v-1.646c0-.576-.236-1.094-.618-1.47L13.13 6.975V5.951a1.025 1.025 0 1 0-2.051 0v1.024H8.616zm1.232 2.053c1.814 0 3.282 1.468 3.282 3.282s-1.468 3.282-3.282 3.282c-1.813 0-3.281-1.468-3.281-3.282s1.467-3.282 3.281-3.282z"/>
    </symbol>

    <symbol id="icon-twitter" viewBox="0 0 17.5 14.663">
        <path fill="#d22856" fill-rule="evenodd" clip-rule="evenodd" d="M11.283.153c1.736-.485 3.074.263 3.685 1.151.694-.226 1.372-.47 2.072-.691-.004.841-.538 1.478-.883 1.727.704.166 1.343-.48 1.343-.48-.175.976-1.035 1.746-1.611 1.977-.239 6.592-3.272 10.956-10.382 10.823h-.46c-.422 0-4.29-.45-5.047-1.843 2.341.192 4.011-.412 4.835-1.15-.989-.293-2.761-.464-3.07-2.881.362.105.583.223 1.228.117C1.757 8.067.385 7.366.461 5.218c.294.32 1.1.523 1.381.461C1.117 5.444-.188 2.398.921.843 2.794 2.654 4.769 4.364 8.29 4.528 8.506 2.288 9.461.787 11.283.153z"/>
    </symbol>

    <symbol id="icon-yes" viewBox="0 0 30.375 21.688">
        <path fill="#3dc644" d="M29.936.439a1.5 1.5 0 0 0-2.121 0L10.188 18.066l-7.627-7.627A1.5 1.5 0 1 0 .44 12.56l8.688 8.688c.293.293.677.439 1.061.439s.768-.146 1.061-.439L29.936 2.561a1.502 1.502 0 0 0 0-2.122z"/>
    </symbol>

    <symbol id="icon-youtube" viewBox="0 0 14.64 13.96">
        <path fill="#d22856" d="M1.775 13.78C.799 14.257 0 13.758 0 12.671V1.29C0 .202.799-.295 1.775.181l12.133 5.932c.975.478.975 1.258 0 1.736L1.775 13.78z"/>
    </symbol>

    <symbol id="review-arrow-left" viewBox="0 0 21.706 41.719">
        <path d="M2.045,20.859L21.458,1.446c0.331-0.331,0.331-0.867,0-1.198c-0.33-0.331-0.867-0.331-1.197,0L0.248,20.261 c-0.331,0.33-0.331,0.867,0,1.197l20.013,20.013c0.164,0.165,0.382,0.248,0.599,0.248s0.434-0.083,0.599-0.248 c0.331-0.331,0.331-0.867,0-1.198L2.045,20.859z"/>
    </symbol>

    <symbol id="review-arrow-right" viewBox="0 0 21.706 41.719">
        <path d="M19.661,20.859L0.248,1.446c-0.331-0.331-0.331-0.867,0-1.198c0.33-0.331,0.867-0.331,1.197,0l20.013,20.012 c0.33,0.33,0.33,0.867,0,1.197L1.445,41.471c-0.164,0.165-0.382,0.248-0.599,0.248s-0.434-0.083-0.599-0.248 c-0.331-0.331-0.331-0.867,0-1.198L19.661,20.859z"/>
    </symbol>
</svg>
